<?xml version="1.0" encoding="UTF-8" standalone="no"?>
<svg
   width="736"
   height="860"
   viewBox="0 0 736 860"
   fill="none"
   version="1.1"
   id="svg13"
   sodipodi:docname="shield.svg"
   inkscape:version="1.4.3 (0d15f75, 2025-12-25)"
   xml:space="preserve"
   xmlns:inkscape="http://www.inkscape.org/namespaces/inkscape"
   xmlns:sodipodi="http://sodipodi.sourceforge.net/DTD/sodipodi-0.dtd"
   xmlns:xlink="http://www.w3.org/1999/xlink"
   xmlns="http://www.w3.org/2000/svg"
   xmlns:svg="http://www.w3.org/2000/svg"><sodipodi:namedview
     id="namedview13"
     pagecolor="#505050"
     bordercolor="#eeeeee"
     borderopacity="1"
     inkscape:showpageshadow="false"
     inkscape:pageopacity="0"
     inkscape:pagecheckerboard="false"
     inkscape:deskcolor="#505050"
     inkscape:zoom="1.1064453"
     inkscape:cx="367.39277"
     inkscape:cy="420.71669"
     inkscape:window-width="2560"
     inkscape:window-height="1351"
     inkscape:window-x="-9"
     inkscape:window-y="-9"
     inkscape:window-maximized="1"
     inkscape:current-layer="svg13"
     inkscape:clip-to-page="false" /><defs
     id="defs12"><linearGradient
       id="shieldBlue"
       x1="512"
       y1="120"
       x2="512"
       y2="930"
       gradientUnits="userSpaceOnUse"
       gradientTransform="translate(-144,-90)"><stop
         offset="0"
         stop-color="#25B7FF"
         id="stop1" /><stop
         offset="0.48"
         stop-color="#0B8EFF"
         id="stop2" /><stop
         offset="1"
         stop-color="#0654E8"
         id="stop3" /></linearGradient><linearGradient
       id="shieldEdge"
       x1="512"
       y1="120"
       x2="512"
       y2="930"
       gradientUnits="userSpaceOnUse"
       gradientTransform="translate(-144,-90)"
       xlink:href="#shieldBlue"><stop
         offset="0"
         stop-color="#159CFF"
         id="stop4" /><stop
         offset="1"
         stop-color="#0648D6"
         id="stop5" /></linearGradient><filter
       id="softShadow"
       x="0"
       y="0"
       width="1"
       height="1"
       color-interpolation-filters="sRGB"><feDropShadow
         dx="0"
         dy="18"
         stdDeviation="18"
         flood-color="#002E8A"
         flood-opacity="0.18" /></filter><filter
       id="symbolShadow"
       x="-0.2"
       y="-0.2"
       width="1.4"
       height="1.4"
       color-interpolation-filters="sRGB"><feDropShadow
         dx="0"
         dy="10"
         stdDeviation="8"
         flood-color="#003A99"
         flood-opacity="0.18" /></filter><radialGradient
       id="haloGrad"
       cx="0.5"
       cy="0.5"
       r="0.5"><stop
         offset="0"
         stop-color="#BFEAFF"
         stop-opacity="0.22"
         id="stop6" /><stop
         offset="0.72"
         stop-color="#68C8FF"
         stop-opacity="0.13"
         id="stop7" /><stop
         offset="1"
         stop-color="#E8F8FF"
         stop-opacity="0.0"
         id="stop8" /></radialGradient><linearGradient
       id="greenBadge"
       x1="0"
       y1="0"
       x2="0"
       y2="1"><stop
         offset="0"
         stop-color="#54D425"
         id="stop9" /><stop
         offset="1"
         stop-color="#15960D"
         id="stop10" /></linearGradient><linearGradient
       id="redBadge"
       x1="0"
       y1="0"
       x2="0"
       y2="1"><stop
         offset="0"
         stop-color="#FF5A5A"
         id="stop11" /><stop
         offset="1"
         stop-color="#E6252F"
         id="stop12" /></linearGradient><linearGradient
       id="green"
       x1="64"
       y1="32"
       x2="192"
       y2="224"
       gradientUnits="userSpaceOnUse"
       gradientTransform="translate(-16,-16)"><stop
         offset="0"
         stop-color="#5FE12C"
         id="stop1-9" /><stop
         offset="1"
         stop-color="#149A0F"
         id="stop2-4" /></linearGradient></defs><g
     id="g1"
     inkscape:label="shield"><path
       d="M 368,0 C 276,76 171,124 61,146 25,153 0,186 0,222 V 396 C 0,592 118,757 368,860 618,757 736,592 736,396 V 222 C 736,186 711,153 675,146 565,124 460,76 368,0 Z m 0,83 c 79,65 170,98 266,118 20,4 34,22 34,42 V 397 C 668,560 573,699 368,788 163,699 68,560 68,397 V 243 c 0,-20 14,-38 34,-42 96,-20 187,-53 266,-118 z"
       style="fill:url(#shieldEdge)"
       id="path18" /><path
       d="m 368,83 c -79,65 -170,98 -266,118 -20,4 -34,22 -34,42 V 397 C 68,560 163,699 368,788 573,699 668,560 668,397 V 243 C 668,223 654,205 634,201 538,181 447,148 368,83 Z"
       style="display:inline;fill:url(#shieldBlue);stroke:#ffffff;stroke-width:36"
       id="path19" /></g><g
     id="bluetooth_symbol"
     fill="none"
     stroke="#ffffff"
     stroke-width="46"
     stroke-linecap="round"
     stroke-linejoin="round"
     transform="matrix(0.87222074,0,0,0.87222074,-127.00014,-53.280436)"><path
       d="m 566.49124,276.69475 165,154 -165,113.99999 165,114 -165,152 z"
       id="path2"
       sodipodi:nodetypes="cccccc" /><path
       d="m 402.49125,430.69475 163.99999,113.99999 -163.99999,114"
       id="path3"
       sodipodi:nodetypes="ccc" /></g><g
     id="g2"
     transform="translate(451.02296,583.83143)"><circle
       fill="#ffffff"
       filter="url(#badgeShadow)"
       id="circle2"
       cy="112"
       cx="112"
       r="112"
       style="stroke:none;stroke-width:1;stroke-dasharray:none;stroke-opacity:1"
       inkscape:label="circle2"
       mask="none" /><circle
       cx="112"
       cy="112"
       r="93"
       fill="url(#green)"
       id="circle3"
       style="fill:url(#green)" /><path
       d="m 62,116 34,34 70,-75"
       fill="none"
       stroke="#ffffff"
       stroke-width="25"
       stroke-linecap="round"
       stroke-linejoin="round"
       id="path3-8" /></g></svg>
